<svg width="64" height="64" viewBox="0 0 64 64" fill="none" xmlns="http://www.w3.org/2000/svg">
  <path fill="#A042FF" d="M32 6L37.3666 3.31672C36.3502 1.28401 34.2726 0 32 0C29.7274 0 27.6498 1.28401 26.6334 3.31672L32 6ZM6 58L0.633437 55.3167C-0.296528 57.1766 -0.197145 59.3855 0.896095 61.1544C1.98933 62.9233 3.92053 64 6 64L6 58ZM52.6334 60.6833C54.1154 63.6472 57.7194 64.8485 60.6833 63.3666C63.6472 61.8846 64.8485 58.2806 63.3666 55.3167L52.6334 60.6833ZM32 64C35.3137 64 38 61.3137 38 58C38 54.6863 35.3137 52 32 52V64ZM11.3666 60.6833L37.3666 8.68328L26.6334 3.31672L0.633437 55.3167L11.3666 60.6833ZM26.6334 8.68328L52.6334 60.6833L63.3666 55.3167L37.3666 3.31672L26.6334 8.68328ZM32 52H6V64H32V52Z"/>
</svg>
